<?xml version="1.0" encoding="utf-8" ?>
<svg
  class="path"
  version="1.1"
  id="Ebene_1"
  xmlns="http://www.w3.org/2000/svg"
  xmlns:xlink="http://www.w3.org/1999/xlink"
  x="0px"
  y="0px"
  viewBox="0 0 180 180"
  style="enable-background:new 0 0 180 180;"
  xml:space="preserve"
>
<style type="text/css">
	.path {
			stroke-dasharray: 500;
			animation: dash 6s 1 linear;
			animation-fill-mode: forwards;
			animation-iteration-count: 3;
		}
		@keyframes dash {
			from{
			stroke-dashoffset: 500;
			fill: transparent;
			opacity: 0.5;
			}
			to {
			stroke-dashoffset: 0;
			fill: #f7931e;
			opacity: 1;
			}
		}
	.st0{fill:#FFFFFF;stroke:#DDDDDD;stroke-width:2;stroke-linejoin:round;stroke-miterlimit:10;}
	.st1{fill:#EEEEEE;}
	.st2{fill:#DDDDDD;}
	.st3{fill:#FFFFFF;stroke:#CCCCCC;stroke-miterlimit:10;}
	.st4{fill:#FFFFFF;stroke:#CCCCCC;stroke-width:2;stroke-miterlimit:10;}
	.st5{fill:#FFFFFF;stroke:#E3C20D;stroke-width:2;stroke-miterlimit:10;}
	.st6{fill:none;stroke:#E3C20D;stroke-width:3;stroke-linecap:round;stroke-linejoin:round;stroke-miterlimit:10;}
	.st7{opacity:0.1;fill:none;}
	.st8{fill:#EEEEEE;stroke:#EEEEEE;stroke-width:2;stroke-linecap:round;stroke-linejoin:round;stroke-miterlimit:10;}
	.st9{fill:#FFFFFF;stroke:#F64F4F;stroke-width:2;stroke-miterlimit:10;}
	.st10{fill:#FFFFFF;stroke:#4CC64C;stroke-width:2;stroke-miterlimit:10;}
	.st11{fill:none;stroke:#4CC64C;stroke-width:3;stroke-linecap:round;stroke-linejoin:round;stroke-miterlimit:10;}
	.st12{enable-background:new    ;}
	.st13{fill:#E3C20D;}
	.st14{fill:none;stroke:#F64F4F;stroke-width:3;stroke-linecap:round;stroke-linejoin:round;}
</style>
<g>
	<g>
		<circle class="st3" cx="29.7" cy="40.6" r="2" />
		<circle class="st4" cx="42.6" cy="41.7" r="5.5" />
		<circle class="st3" cx="45.5" cy="28.1" r="2" />
	</g>
	<g>
		<circle class="st3" cx="141.3" cy="27.6" r="2" />
		<circle class="st3" cx="150.3" cy="39.8" r="2" />
	</g>
	<g>
		<path
        class="st0"
        d="M131.5,145.8c-1,0.6-2.1,1-3.3,1h-75c-3.3,0-6-2.7-6-6V62.1v-4.3l25-25h18.6h37.4c3.3,0,6,2.7,6,6v97"
      />
		<g>
			<polygon class="st1" points="49.6,56.8 71.2,35.2 71.2,56.8 			" />
			<path
          class="st1"
          d="M70.2,37.6v18.2H52L70.2,37.6 M72.2,32.8l-25,25h25V32.8L72.2,32.8z"
        />
		</g>
	</g>
	<polygon class="st7" points="48.1,58 73.1,58 73.1,32 	" />
	<g>
		<line class="st8" x1="63.7" y1="74.8" x2="117.7" y2="74.8" />
		<g>
			<path
          class="st1"
          d="M63.7,75.8c-0.6,0-1-0.4-1-1s0.4-1,1-1h54c0.6,0,1,0.4,1,1s-0.4,1-1,1H63.7z"
        />
			<path
          class="st1"
          d="M117.7,72.8h-54c-1.1,0-2,0.9-2,2s0.9,2,2,2h54c1.1,0,2-0.9,2-2S118.8,72.8,117.7,72.8L117.7,72.8z"
        />
		</g>
	</g>
	<g>
		<line class="st8" x1="63.7" y1="83.6" x2="117.7" y2="83.6" />
		<g>
			<path
          class="st1"
          d="M63.7,84.6c-0.6,0-1-0.4-1-1s0.4-1,1-1h54c0.6,0,1,0.4,1,1s-0.4,1-1,1H63.7z"
        />
			<path
          class="st1"
          d="M117.7,81.6h-54c-1.1,0-2,0.9-2,2c0,1.1,0.9,2,2,2h54c1.1,0,2-0.9,2-2C119.7,82.5,118.8,81.6,117.7,81.6
				L117.7,81.6z"
        />
		</g>
	</g>
	<g>
		<line class="st8" x1="63.7" y1="101.3" x2="117.7" y2="101.3" />
		<g>
			<path
          class="st1"
          d="M63.7,102.3c-0.6,0-1-0.4-1-1s0.4-1,1-1h54c0.6,0,1,0.4,1,1s-0.4,1-1,1H63.7z"
        />
			<path
          class="st1"
          d="M117.7,99.3h-54c-1.1,0-2,0.9-2,2c0,1.1,0.9,2,2,2h54c1.1,0,2-0.9,2-2C119.7,100.2,118.8,99.3,117.7,99.3
				L117.7,99.3z"
        />
		</g>
	</g>
	<g>
		<line class="st8" x1="63.7" y1="92.5" x2="117.7" y2="92.5" />
		<g>
			<path
          class="st1"
          d="M63.7,93.5c-0.6,0-1-0.4-1-1s0.4-1,1-1h54c0.6,0,1,0.4,1,1s-0.4,1-1,1H63.7z"
        />
			<path
          class="st1"
          d="M117.7,90.5h-54c-1.1,0-2,0.9-2,2c0,1.1,0.9,2,2,2h54c1.1,0,2-0.9,2-2C119.7,91.4,118.8,90.5,117.7,90.5
				L117.7,90.5z"
        />
		</g>
	</g>
	<g>
		<line class="st8" x1="63.7" y1="110.1" x2="117.7" y2="110.1" />
		<g>
			<path
          class="st1"
          d="M63.7,111.1c-0.6,0-1-0.4-1-1c0-0.6,0.4-1,1-1h54c0.6,0,1,0.4,1,1c0,0.6-0.4,1-1,1H63.7z"
        />
			<path
          class="st1"
          d="M117.7,108.1h-54c-1.1,0-2,0.9-2,2c0,1.1,0.9,2,2,2h54c1.1,0,2-0.9,2-2C119.7,109,118.8,108.1,117.7,108.1
				L117.7,108.1z"
        />
		</g>
	</g>
	<g>
		<line class="st8" x1="63.7" y1="119" x2="117.7" y2="119" />
		<g>
			<path
          class="st1"
          d="M63.7,120c-0.6,0-1-0.4-1-1s0.4-1,1-1h54c0.6,0,1,0.4,1,1s-0.4,1-1,1H63.7z"
        />
			<path
          class="st1"
          d="M117.7,117h-54c-1.1,0-2,0.9-2,2c0,1.1,0.9,2,2,2h54c1.1,0,2-0.9,2-2C119.7,117.9,118.8,117,117.7,117
				L117.7,117z"
        />
		</g>
	</g>
	<g>
		<line class="st8" x1="63.7" y1="127.8" x2="117.7" y2="127.8" />
		<g>
			<path
          class="st1"
          d="M63.7,128.8c-0.6,0-1-0.4-1-1c0-0.6,0.4-1,1-1h54c0.6,0,1,0.4,1,1c0,0.6-0.4,1-1,1H63.7z"
        />
			<path
          class="st1"
          d="M117.7,125.8h-54c-1.1,0-2,0.9-2,2c0,1.1,0.9,2,2,2h54c1.1,0,2-0.9,2-2C119.7,126.7,118.8,125.8,117.7,125.8
				L117.7,125.8z"
        />
		</g>
	</g>
	<g>
		<circle class="st5" cx="131.1" cy="134.1" r="20.4" />
	</g>
</g>
<g class="st12">
	<path
      class="st13"
      d="M124.2,129.7c0-0.9,0.3-1.7,0.8-2.6c0.6-0.9,1.4-1.6,2.4-2.2c1.1-0.6,2.3-0.9,3.7-0.9c1.3,0,2.5,0.2,3.5,0.7
		c1,0.5,1.8,1.2,2.3,2c0.6,0.8,0.8,1.8,0.8,2.7c0,0.8-0.2,1.5-0.5,2c-0.3,0.6-0.7,1.1-1.1,1.5s-1.2,1.1-2.3,2.1
		c-0.3,0.3-0.6,0.5-0.7,0.7c-0.2,0.2-0.3,0.4-0.4,0.6c-0.1,0.2-0.2,0.4-0.2,0.5s-0.1,0.5-0.2,0.9c-0.2,0.9-0.7,1.4-1.6,1.4
		c-0.5,0-0.9-0.2-1.2-0.5c-0.3-0.3-0.5-0.8-0.5-1.4c0-0.8,0.1-1.4,0.4-2s0.6-1.1,0.9-1.5s0.9-0.9,1.6-1.5c0.6-0.5,1-0.9,1.3-1.2
		s0.5-0.5,0.7-0.9c0.2-0.3,0.3-0.7,0.3-1c0-0.7-0.3-1.3-0.8-1.8c-0.5-0.5-1.2-0.8-2.1-0.8c-1,0-1.7,0.3-2.2,0.8
		c-0.5,0.5-0.9,1.3-1.2,2.2c-0.3,1-0.9,1.5-1.8,1.5c-0.5,0-0.9-0.2-1.3-0.5C124.4,130.5,124.2,130.2,124.2,129.7z M130.9,144.7
		c-0.6,0-1-0.2-1.5-0.5c-0.4-0.4-0.6-0.9-0.6-1.5c0-0.6,0.2-1.1,0.6-1.5c0.4-0.4,0.9-0.6,1.5-0.6c0.6,0,1.1,0.2,1.5,0.6
		c0.4,0.4,0.6,0.9,0.6,1.5c0,0.6-0.2,1.1-0.6,1.5C131.9,144.6,131.4,144.7,130.9,144.7z"
    />
</g>
</svg>
