<svg width="835" height="152" viewBox="0 0 835 152" fill="none" xmlns="http://www.w3.org/2000/svg">
<g clip-path="url(#clip0_1_5)">
<path d="M271.748 88.9991C271.597 82.6448 272.656 76.2905 274.925 70.3901C276.893 65.3974 279.767 60.8586 283.399 57.0762C286.728 53.5965 290.965 50.8734 295.655 48.9066C300.044 46.9398 305.188 46.0318 310.03 46.0318C321.379 46.0318 330.458 49.3605 336.813 56.4712C343.168 63.582 346.648 73.5673 346.648 87.1837C346.648 88.5453 346.648 90.2094 346.497 91.571C346.346 93.2352 346.346 94.5969 346.194 95.8072H294.748C295.05 100.195 297.623 104.431 301.405 107.003C305.34 109.877 310.484 111.239 316.991 111.239C321.076 111.239 325.162 110.936 329.247 110.029C332.576 109.272 335.905 108.365 338.931 107.154L341.957 125.763C340.293 126.52 338.78 126.973 336.964 127.579C334.846 128.335 332.576 128.637 330.004 129.243C327.583 129.697 324.708 130.15 321.833 130.453C318.958 130.756 316.234 131.058 313.359 131.058C307.004 131.21 300.649 130.151 294.596 127.881C289.603 125.914 285.063 123.04 281.281 119.258C277.8 115.475 275.077 110.936 273.564 106.246C272.504 100.497 271.748 94.7482 271.748 88.9991ZM324.859 80.3755C324.708 78.4087 324.405 76.5929 323.8 74.7774C323.195 72.8106 322.438 71.4492 321.076 69.785C319.866 68.4234 318.353 67.0615 316.688 66.4563C314.721 65.5485 312.3 65.0948 310.03 65.0948C307.761 64.9435 305.642 65.3975 303.372 66.3052C301.557 67.0617 300.195 68.272 298.984 69.6336C297.774 71.2978 296.866 72.8108 296.109 74.6263C295.353 76.5931 294.899 78.4085 294.748 80.5266H324.859V80.3755Z" fill="#495054"/>
<path d="M434.411 88.8475C434.411 95.2017 433.503 101.102 431.687 106.095C429.871 111.239 427.148 115.778 423.667 119.56C420.187 123.342 416.102 126.065 411.108 128.184C406.115 130.15 400.819 131.209 394.615 131.209C388.714 131.209 383.266 130.15 378.424 128.184C373.431 126.217 369.346 123.191 365.865 119.56C362.385 115.778 359.662 111.239 357.694 106.095C355.727 100.8 354.819 94.8992 354.819 88.8475C354.819 82.4932 355.879 76.5929 357.846 71.6002C359.813 66.305 362.688 62.0686 366.168 58.135C369.648 54.504 373.885 51.6295 378.727 49.5114C383.72 47.5446 388.865 46.4855 394.615 46.4855C400.365 46.4855 405.812 47.5446 410.654 49.5114C415.648 51.4782 419.733 54.504 423.213 58.135C426.693 61.9173 429.417 66.305 431.384 71.6002C433.351 76.7442 434.411 82.4932 434.411 88.8475ZM411.108 88.8475C411.108 81.7367 409.746 76.1391 406.871 72.0542C403.996 67.9693 400.214 66.0025 394.918 66.0025C389.622 66.0025 385.536 67.9693 382.661 72.0542C379.786 76.1391 378.424 81.5854 378.424 88.8475C378.424 95.9582 379.786 101.556 382.661 105.641C385.536 109.877 389.622 111.844 394.918 111.844C400.214 111.844 404.299 109.877 406.871 105.641C409.595 101.405 411.108 95.8069 411.108 88.8475Z" fill="#495054"/>
<path d="M240.577 130.453C233.465 118.047 226.051 105.641 217.729 93.538C209.406 81.2833 200.782 69.9364 191.551 59.1945V130.605H167.341V21.6738H187.466C190.946 25.1535 194.729 29.3896 198.814 34.3822C202.9 39.5262 207.288 44.8214 211.525 50.5705C215.913 56.3197 220.15 62.2204 224.538 68.2721C228.926 74.3239 232.86 80.2242 236.794 85.9734V21.6738H261.156V130.605L240.577 130.453Z" fill="#495054"/>
<path d="M93.5005 56.3197L106.211 69.1796C111.507 74.6261 111.204 83.401 105.606 89.1501L92.1387 102.766L75.7968 86.2757C72.4679 82.9473 67.1719 82.9473 63.9943 86.2757L28.7382 121.678L52.3432 145.582C59.7576 153.147 72.1652 152.693 79.8823 144.826L123.763 100.497C135.566 88.3937 136.02 69.6337 124.823 58.438L108.027 41.493L93.5005 56.3197Z" fill="#495054"/>
<path d="M54.3098 6.99858L9.97483 52.0836C-1.52503 63.7331 -2.13034 82.3421 9.06689 93.6891L25.7114 110.483L39.3297 96.715L26.7706 84.0065C21.4747 78.56 21.4747 70.2387 26.7706 64.9435L41.902 49.5117L57.9413 65.8514C61.2702 69.1798 66.5662 69.1798 69.5925 65.8514L104.849 30.449L81.6976 6.69569C74.2832 -1.17154 62.0268 -0.717362 54.3098 6.99858Z" fill="#E3C20D"/>
<path d="M543.352 61.4332H516.719C516.363 58.6989 515.635 56.2308 514.535 54.0291C513.434 51.8274 511.978 49.9453 510.167 48.3828C508.356 46.8203 506.207 45.6307 503.721 44.8139C501.271 43.9616 498.555 43.5355 495.572 43.5355C490.28 43.5355 485.717 44.8317 481.882 47.424C478.082 50.0163 475.153 53.7628 473.093 58.6633C471.069 63.5639 470.057 69.4943 470.057 76.4545C470.057 83.6989 471.086 89.7713 473.146 94.6719C475.241 99.5369 478.171 103.212 481.935 105.698C485.735 108.148 490.227 109.374 495.412 109.374C498.324 109.374 500.969 109.001 503.349 108.255C505.763 107.509 507.876 106.426 509.687 105.006C511.534 103.55 513.043 101.792 514.215 99.7322C515.422 97.6371 516.257 95.2756 516.719 92.6477L543.352 92.8075C542.89 97.6371 541.488 102.396 539.144 107.083C536.836 111.771 533.657 116.05 529.609 119.92C525.561 123.756 520.625 126.81 514.801 129.082C509.013 131.355 502.372 132.491 494.879 132.491C485.007 132.491 476.165 130.325 468.352 125.993C460.575 121.625 454.432 115.268 449.922 106.923C445.412 98.5781 443.157 88.4219 443.157 76.4545C443.157 64.4517 445.447 54.2777 450.028 45.9325C454.609 37.5874 460.806 31.2486 468.618 26.9162C476.431 22.5838 485.184 20.4176 494.879 20.4176C501.484 20.4176 507.592 21.3409 513.203 23.1875C518.814 24.9986 523.75 27.6619 528.011 31.1776C532.273 34.6577 535.735 38.9368 538.398 44.0149C541.062 49.093 542.713 54.8991 543.352 61.4332ZM558.44 131V21.9091H603.504C611.672 21.9091 618.721 23.3828 624.651 26.3303C630.617 29.2422 635.216 33.4325 638.447 38.9013C641.679 44.3345 643.294 50.7798 643.294 58.2372C643.294 65.8011 641.643 72.2287 638.341 77.5199C635.038 82.7756 630.35 86.7884 624.278 89.5582C618.206 92.2926 611.015 93.6598 602.705 93.6598H574.207V72.8857H597.804C601.782 72.8857 605.102 72.3707 607.765 71.3409C610.464 70.2756 612.506 68.6776 613.891 66.5469C615.276 64.3807 615.968 61.6108 615.968 58.2372C615.968 54.8636 615.276 52.076 613.891 49.8743C612.506 47.6371 610.464 45.968 607.765 44.8672C605.066 43.7308 601.746 43.1626 597.804 43.1626H584.807V131H558.44ZM619.857 81.142L647.023 131H618.259L591.625 81.142H619.857ZM657.756 21.9091H690.409L718.108 89.4517H719.386L747.085 21.9091H779.738V131H754.063V63.9901H753.158L726.95 130.308H710.544L684.337 63.6172H683.431V131H657.756V21.9091Z" fill="#495054"/>
</g>
<defs>
<clipPath id="clip0_1_5">
<rect width="835" height="152" fill="white"/>
</clipPath>
</defs>
</svg>
