<?xml version="1.0" encoding="utf-8"?>
<!-- Generator: Adobe Illustrator 25.2.0, SVG Export Plug-In . SVG Version: 6.00 Build 0)  -->
<!DOCTYPE svg PUBLIC "-//W3C//DTD SVG 1.1//EN" "http://www.w3.org/Graphics/SVG/1.1/DTD/svg11.dtd" [
	<!ENTITY ns_extend "http://ns.adobe.com/Extensibility/1.0/">
	<!ENTITY ns_ai "http://ns.adobe.com/AdobeIllustrator/10.0/">
	<!ENTITY ns_graphs "http://ns.adobe.com/Graphs/1.0/">
	<!ENTITY ns_vars "http://ns.adobe.com/Variables/1.0/">
	<!ENTITY ns_imrep "http://ns.adobe.com/ImageReplacement/1.0/">
	<!ENTITY ns_sfw "http://ns.adobe.com/SaveForWeb/1.0/">
	<!ENTITY ns_custom "http://ns.adobe.com/GenericCustomNamespace/1.0/">
	<!ENTITY ns_adobe_xpath "http://ns.adobe.com/XPath/1.0/">
]>
<svg version="1.1" id="Layer_1" xmlns:x="&ns_extend;" xmlns:i="&ns_ai;" xmlns:graph="&ns_graphs;"
	 xmlns="http://www.w3.org/2000/svg" xmlns:xlink="http://www.w3.org/1999/xlink" x="0px" y="0px" viewBox="0 0 1171.3 259"
	 style="enable-background:new 0 0 1171.3 259;" xml:space="preserve">
<style type="text/css">
	.st0{fill:#495054;}
	.st1{fill:#2b8c42;}
</style>
<metadata>
	<sfw  xmlns="&ns_sfw;">
		<slices></slices>
		<sliceSourceBounds  bottomLeftOrigin="true" height="242.2" width="1152.8" x="385.7" y="671.4"></sliceSourceBounds>
	</sfw>
</metadata>
<path class="st0" d="M704.4,149.7c0,10.3-1.5,19.8-4.4,27.9c-2.9,8.3-7.3,15.6-12.9,21.7c-5.6,6.1-12.2,10.5-20.3,13.9
	c-8.1,3.2-16.6,4.9-26.6,4.9c-9.5,0-18.3-1.7-26.1-4.9c-8.1-3.2-14.7-8.1-20.3-13.9c-5.6-6.1-10-13.4-13.2-21.7
	c-3.2-8.6-4.6-18.1-4.6-27.9c0-10.3,1.7-19.8,4.9-27.9c3.2-8.6,7.8-15.4,13.4-21.7c5.6-5.9,12.5-10.5,20.3-13.9
	c8.1-3.2,16.4-4.9,25.7-4.9c9.3,0,18.1,1.7,25.9,4.9c8.1,3.2,14.7,8.1,20.3,13.9c5.6,6.1,10,13.2,13.2,21.7
	C702.7,130.1,704.4,139.4,704.4,149.7z M666.8,149.7c0-11.5-2.2-20.5-6.8-27.1c-4.6-6.6-10.7-9.8-19.3-9.8s-15.1,3.2-19.8,9.8
	S614,138,614,149.7c0,11.5,2.2,20.5,6.8,27.1c4.6,6.8,11.2,10,19.8,10s15.1-3.2,19.3-10C664.3,170,666.8,160.9,666.8,149.7z"/>
<path class="st0" d="M396.3,216.9c-11.5-20-23.5-40.1-36.9-59.6c-13.4-19.8-27.4-38.1-42.3-55.5v115.3h-39.1V41.2h32.5
	c5.6,5.6,11.7,12.5,18.3,20.5c6.6,8.3,13.7,16.9,20.5,26.1c7.1,9.3,13.9,18.8,21,28.6c7.1,9.8,13.4,19.3,19.8,28.6V41.2h39.3v175.9
	L396.3,216.9L396.3,216.9z"/>
<path class="st0" d="M158.9,97.2l20.5,20.8c8.6,8.8,8.1,23-1,32.2l-21.7,22l-26.4-26.6c-5.4-5.4-13.9-5.4-19.1,0l-56.9,57.2
	l38.1,38.6c12,12.2,32,11.5,44.5-1.2l70.8-71.6c19.1-19.5,19.8-49.8,1.7-67.9l-27.1-27.4L158.9,97.2z"/>
<path class="st1" d="M95.6,17.5L24,90.3c-18.6,18.8-19.5,48.9-1.5,67.2l26.9,27.1l22-22.2l-20.3-20.5c-8.6-8.8-8.6-22.2,0-30.8
	l24.4-24.9l25.9,26.4c5.4,5.4,13.9,5.4,18.8,0l56.9-57.2L139.8,17C127.8,4.3,108,5.1,95.6,17.5z"/>
<path class="st0" d="M443.5,148.2c0-11.7,1.7-21.7,5.4-31c3.4-8.8,8.3-16.1,13.7-22c5.4-5.6,12.5-10.3,19.8-13.2
	c7.6-2.9,15.1-4.6,23.5-4.6c18.3,0,33.2,5.6,44,17.1c11,11.5,16.1,28.3,16.1,50.8c0,2.2,0,4.6-0.2,7.1c-0.2,2.4-0.2,4.9-0.5,6.8
	h-83.8c1,7.8,4.4,13.7,11,18.3c6.4,4.6,14.7,6.8,25.2,6.8c6.8,0,13.4-0.5,19.8-2c6.6-1.2,12-2.9,16.1-4.6l4.9,30.8
	c-2,1-4.6,2-7.8,2.9c-3.4,1-7.1,2-11.2,2.7c-3.9,1-8.6,1.5-12.9,2c-4.6,0.5-9.3,1-13.7,1c-11.5,0-22-1.7-30.8-5.1
	c-8.8-3.4-16.1-8.3-21.5-14.7c-5.4-6.1-10-13.2-12.5-21.5C444.9,166.8,443.5,158,443.5,148.2z M530.4,133.8
	c-0.2-3.2-0.5-6.4-1.7-9.3c-1-2.9-2.2-5.6-4.4-8.3c-2-2.2-4.4-4.4-7.1-5.6c-2.9-1.5-6.6-2.2-11-2.2s-7.8,0.5-11,2
	c-2.9,1.5-5.4,3.2-7.6,5.6c-2,2.9-3.4,5.1-4.6,8.1c-1.2,3.2-2,6.4-2.2,9.5L530.4,133.8z"/>
<path class="st0" d="M872.8,128.8c0,15.1-2.4,28.3-7.1,39.6c-4.6,11.2-11.5,20.5-20,28.1c-8.6,7.3-19.3,12.9-31.8,16.6
	s-26.4,5.6-41.8,5.6c-7.1,0-15.4-0.2-24.7-1c-9.5-0.5-18.6-1.7-27.9-3.7V43.8c9-1.7,18.6-2.9,28.3-3.4c9.8-0.5,18.3-1,25.4-1
	c14.9,0,28.6,1.7,40.8,5.1c12.2,3.4,22.7,8.6,31.5,15.9c8.8,7.3,15.4,16.4,20.3,27.9C870.4,99.5,872.8,112.9,872.8,128.8z
	 M759,184.3c2,0.2,3.9,0.2,6.4,0.5c2.4,0,5.4,0.2,8.8,0.2c19.8,0,34.2-4.9,43.7-14.9c9.5-10,14.2-23.7,14.2-41
	c0-18.3-4.6-32.2-13.7-41.5c-9-9.5-23.5-14.2-43.2-14.2c-2.7,0-5.4,0-8.3,0.2c-2.9,0-5.6,0.2-8.1,0.7v109.9L759,184.3L759,184.3z"/>
<path class="st0" d="M979.3,216.3c-4.9-9.8-10.3-19.5-16.1-29.6c-5.9-10-12.5-18.3-20.3-25.4c-2.4,2.7-5.4,6.1-9,10.7
	c-3.7,4.6-7.3,9.5-10.7,14.7c-3.7,5.1-7.1,10.5-10.3,16.1c-3.2,5.6-5.4,10-7.1,13.2h-45c7.3-13.7,16.1-27.9,26.1-42.3
	c10-14.7,21.3-30.1,33.5-46.4l-57.2-86.2h47.6l33.2,50.6l34-50.6h45l-56.7,84.3c14.9,18.6,27.1,35.7,36.6,51.3s17.1,28.6,22.7,39.1
	h-46.4V216.3z"/>
<path class="st0" d="M1089.4,35c28.2,1.1,37.2,5.1,51.4,14.4s21.5,24.8,21.5,46.3c0,21.8-7.1,37-21.8,46.6
	c-11.6,9-25.3,14.4-52.1,14.4h-12.9V217h-40.2V40.1c8.9-1.8,18.2-3,27.8-3.8C1073.7,35,1082,34.8,1089.4,35z M1092.2,69
	c-3,0-5.6,0-8.6,0.3c-3,0.3-5.3,0.3-7.3,0.5v51.9h12.9c14.2,0,19.5-2,26.6-5.6c7.1-3.8,10.6-10.9,10.6-21c0-5.3-0.8-9.1-3-12.7
	c-2-3.5-4.3-5.8-7.6-7.8c-3.5-2-7.3-3.5-12.4-4.3C1098.2,69.7,1098,69,1092.2,69z"/>
</svg>
